# xmcd CD database file
#
# Track frame offsets:
#	150
#	11265
#	25928
#	40017
#	54727
#	68001
#	81702
#	96353
#	110659
#	124560
#	139011
#	150669
#
# Disc length: 2202 seconds
#
# Revision: 0
# Processed by: cddbd v1.5.2PL0 Copyright (c) Steve Scherf et al.
# Submitted via: CDex 1.51
#
DISCID=9a08980c
DTITLE=Big Band Love Songs - Sentimental Journey
DYEAR=2006
DGENRE=Jazz
TTITLE0=Ella Fitzgerald - Baby, Won't You Please Come Home
TTITLE1=Charlie Barnet and Lena Horne - You're My Thrill
TTITLE2=Benny Goodman and Helen Forrest - Taking A Chance On Love
TTITLE3=Glenn Miller and Ray Eberle - Moonlight Cocktail
TTITLE4=Harry James and Betty Grable - I Can't Begin To Tell You
TTITLE5=Louis Armstrong - A Kiss To Build A Dream On
TTITLE6=Artie Shaw - Comes Love
TTITLE7=Les Brown and Doris Day - Sentimental Journey
TTITLE8=Duke Ellington and The Rhythm Boys - Three Little Words
TTITLE9=Sammy Kaye and Nancy Norman - There Will Never Be Another You
TTITLE10=Ray Anthony - Tenderly
TTITLE11=Freddy Martin - Piano Concerto In B Flat (Tonight We Love)
EXTD=YEAR: 2006
EXTT0=
EXTT1=
EXTT2=
EXTT3=
EXTT4=
EXTT5=
EXTT6=
EXTT7=
EXTT8=
EXTT9=
EXTT10=
EXTT11=
PLAYORDER=
